#!OML:ASF H:\ManfredETheater\Project 1\Capture day 1\Session 1\subject.ASF
:FULLY-SPECIFIED
:DEGREES
62
root 11.4 17.3922 15.3315 -175.651 -18.0401 -179.252
lowerback 21.8014 1.89422 6.16384
upperback -0.293043 4.18444 3.0446
thorax -12.399 1.53717 -1.39353
lowerneck -18.5059 -2.47585 -3.42265
upperneck 11.3341 -2.04446 -3.39221
head 6.47418 -1.48025 -0.771624
rclavicle 4.81059e-014 3.65764e-014
rhumerus 20.8335 13.6909 -42.6511
rradius 92.6974
rwrist -4.18251
rhand -25.8116 8.9357
rfingers 7.12502
rthumb 0.727754 -21.0428
lclavicle 4.81059e-014 3.65764e-014
lhumerus 6.07618 -3.13496 36.8472
lradius 99.0361
lwrist 6.98426
lhand -27.7495 -14.0887
lfingers 7.12502
lthumb -1.14394 15.888
rfemur -20.5869 5.1079 24.5005
rtibia 38.8896
rfoot -12.773 -6.8511
rtoes -22.7746
lfemur -90.6285 15.5707 -12.4445
ltibia 133.406
lfoot -0.58827 -20.3515
ltoes -10.0905
63
root 11.2992 17.6891 14.9267 -175.878 -18.6447 -180.025
lowerback 22.0566 1.89484 5.74582
upperback -0.232877 4.05665 2.47115
thorax -12.463 1.4952 -1.77431
lowerneck -18.0853 -2.72749 -3.69481
upperneck 11.5683 -2.39804 -2.86305
head 6.48895 -1.61203 -0.590994
rclavicle 6.32135e-014 -2.8625e-014
rhumerus 22.7062 12.1537 -39.2697
rradius 93.0251
rwrist -3.79648
rhand -26.108 8.95984
rfingers 7.12502
rthumb 0.44147 -21.0194
lclavicle 6.32135e-014 -2.8625e-014
lhumerus 7.67391 -2.02599 33.4135
lradius 97.2782
lwrist 6.32081
lhand -27.6298 -13.9652
lfingers 7.12502
lthumb -1.02835 16.012
rfemur -16.3285 5.608 23.8926
rtibia 34.3363
rfoot -9.79555 -7.22271
rtoes -24.0388
lfemur -92.8429 12.8599 -12.6074
ltibia 130.533
lfoot -0.952665 -19.1642
ltoes -10.1937
64
root 11.1955 18.0027 14.5167 -176.136 -19.224 -180.777
lowerback 22.2989 1.86518 5.30234
upperback -0.116241 3.86499 1.92211
thorax -12.463 1.42427 -2.09029
lowerneck -17.6556 -2.91223 -3.91729
upperneck 11.8049 -2.67814 -2.34264
head 6.50455 -1.70848 -0.41295
rclavicle -5.96354e-016 1.11319e-014
rhumerus 24.3511 10.5268 -36.3108
rradius 92.8759
rwrist -3.2289
rhand -26.1699 8.9065
rfingers 7.12502
rthumb 0.381673 -21.0729
lclavicle -5.96354e-016 1.11319e-014
lhumerus 8.80059 -1.27189 30.1133
lradius 95.2459
lwrist 5.55869
lhand -27.5496 -14.0119
lfingers 7.12502
lthumb -0.950882 15.9657
rfemur -11.9062 6.23179 23.3398
rtibia 29.3469
rfoot -5.96809 -7.50041
rtoes -25.0305
lfemur -94.4592 10.5017 -12.5375
ltibia 127.498
lfoot -1.33154 -18.0884
ltoes -10.2797
65
root 11.0865 18.3312 14.1033 -176.411 -19.7181 -181.473
lowerback 22.4916 1.82481 4.87458
upperback 0.0579242 3.64758 1.41689
thorax -12.3734 1.3408 -2.35237
lowerneck -17.2409 -3.03063 -4.09139
upperneck 12.0439 -2.87698 -1.88042
head 6.52311 -1.77082 -0.252936
rclavicle -6.79844e-014 1.74931e-014
rhumerus 25.8199 8.90979 -33.7967
rradius 92.2774
rwrist -2.6046
rhand -26.0358 8.81621
rfingers 7.12502
rthumb 0.511214 -21.1629
lclavicle -6.79844e-014 1.74931e-014
lhumerus 9.4896 -0.883643 26.9987
lradius 92.9987
lwrist 4.70389
lhand -27.5478 -14.1418
lfingers 7.12502
lthumb -0.94913 15.8358
rfemur -7.38809 6.89418 22.8528
rtibia 23.9388
rfoot -1.18854 -7.78509
rtoes -25.354
lfemur -95.5804 8.54065 -12.3079
ltibia 124.401
lfoot -1.71233 -17.1958
ltoes -10.2458
66
root 10.9699 18.6732 13.6888 -176.674 -20.066 -182.09
lowerback 22.5763 1.79427 4.49201
upperback 0.290445 3.44197 0.973449
thorax -12.158 1.26253 -2.56602
lowerneck -16.8522 -3.088 -4.21479
upperneck 12.2671 -2.99227 -1.53931
head 6.53848 -1.80327 -0.131482
rclavicle -2.60408e-014 -2.38542e-015
rhumerus 27.15 7.37764 -31.7494
rradius 91.3123
rwrist -1.99227
rhand -25.6982 8.67551
rfingers 7.12502
rthumb 0.837262 -21.3026
lclavicle -2.60408e-014 -2.38542e-015
lhumerus 9.76964 -0.810898 24.1671
lradius 90.615
lwrist 3.8122
lhand -27.5183 -14.3068
lfingers 7.12502
lthumb -0.920654 15.671
rfemur -2.75918 7.45209 22.4107
rtibia 17.9274
rfoot 4.63209 -8.23197
rtoes -24.3572
lfemur -96.3074 6.98572 -11.9656
ltibia 121.314
lfoot -2.06289 -16.5325
ltoes -10.1103
67
root 10.8426 19.0158 13.2755 -176.91 -20.2146 -182.607
lowerback 22.5438 1.79098 4.17986
upperback 0.563395 3.28538 0.603889
thorax -11.8298 1.20573 -2.74403
lowerneck -16.4858 -3.09131 -4.29966
upperneck 12.4901 -3.02522 -1.34672
head 6.55402 -1.80947 -0.0558201
rclavicle -2.40529e-014 -6.44062e-014
rhumerus 28.3517 6.0106 -30.1671
rradius 90.0775
rwrist -1.4314
rhand -25.2496 8.47267
rfingers 7.12502
rthumb 1.27055 -21.5033
lclavicle -2.40529e-014 -6.44062e-014
lhumerus 9.64616 -1.0219 21.7257
lradius 88.192
lwrist 2.90898
lhand -27.4299 -14.4401
lfingers 7.12502
lthumb -0.83528 15.538
rfemur 2.28881 7.75684 21.9752
rtibia 10.6493
rfoot 11.505 -9.09923
rtoes -22.2601
lfemur -96.8126 5.84434 -11.531
ltibia 118.359
lfoot -2.37173 -16.1455
ltoes -10.0493
68
root 10.7069 19.3718 12.8661 -177.129 -20.1303 -183.008
lowerback 22.4115 1.82642 3.95832
upperback 0.866504 3.204 0.316348
thorax -11.4087 1.18172 -2.89822
lowerneck -16.1275 -3.05272 -4.36581
upperneck 12.7099 -2.98814 -1.29756
head 6.56644 -1.79553 -0.0222931
rclavicle 6.69904e-014 2.46493e-014
rhumerus 29.4265 4.86259 -29.0503
rradius 88.676
rwrist -0.933917
rhand -24.7838 8.2035
rfingers 7.12502
rthumb 1.72037 -21.7693
lclavicle 6.69904e-014 2.46493e-014
lhumerus 9.13653 -1.45812 19.7795
lradius 85.8272
lwrist 2.03515
lhand -27.2829 -14.5227
lfingers 7.12502
lthumb -0.693333 15.4559
rfemur 8.7754 6.4131 21.3172
rtibia -1.59028e-015
rfoot 20.3676 -9.25367
rtoes -19.2796
lfemur -96.9867 5.0828 -10.9991
ltibia 115.482
lfoot -2.68879 -15.9982
ltoes -10.0572
69
root 10.5637 19.7341 12.4631 -177.356 -19.7965 -183.263
lowerback 22.2259 1.90858 3.84614
upperback 1.18397 3.21815 0.119022
thorax -10.9372 1.19881 -3.03874
lowerneck -15.7439 -2.98191 -4.41692
upperneck 12.9214 -2.89733 -1.37367
head 6.56896 -1.76756 -0.0257111
rclavicle 2.34566e-014 2.14687e-014
rhumerus 30.3571 3.97528 -28.3941
rradius 87.2066
rwrist -0.488522
rhand -24.4118 7.91149
rfingers 7.12502
rthumb 2.07969 -22.0581
lclavicle 2.34566e-014 2.14687e-014
lhumerus 8.26991 -2.04869 18.4291
lradius 83.594
lwrist 1.18847
lhand -27.0889 -14.5864
lfingers 7.12502
lthumb -0.505937 15.3927
rfemur 9.76684 5.34174 20.7138
rtibia 2.54444e-014
rfoot 23.8203 -9.81816
rtoes -16.2612
lfemur -96.8879 4.6847 -10.3448
ltibia 112.733
lfoot -2.99749 -16.0451
ltoes -10.0792
70
root 10.4157 20.1027 12.0687 -177.604 -19.2272 -183.363
lowerback 22.0322 2.03665 3.85003
upperback 1.49917 3.33027 0.00884191
thorax -10.4578 1.25773 -3.17561
lowerneck -15.3216 -2.89495 -4.46903
upperneck 13.1317 -2.77899 -1.52377
head 6.5631 -1.73428 -0.049665
rclavicle 2.10712e-014 2.94201e-014
rhumerus 31.1141 3.37558 -28.19
rradius 85.8007
rwrist -0.128965
rhand -24.1147 7.42367
rfingers 7.12502
rthumb 2.36659 -22.543
lclavicle 2.10712e-014 2.94201e-014
lhumerus 7.08691 -2.71233 17.7392
lradius 81.5526
lwrist 0.362354
lhand -26.8892 -14.6712
lfingers 7.12502
lthumb -0.313048 15.3084
rfemur 10.647 4.52436 20.2089
rtibia -3.49861e-014
rfoot 27.0042 -10.5295
rtoes -13.3769
lfemur -96.5152 4.59339 -9.55791
ltibia 110.099
lfoot -3.32233 -16.1922
ltoes -10.1473
71
root 10.2658 20.4753 11.6848 -177.891 -18.4452 -183.284
lowerback 21.8916 2.20382 3.98467
upperback 1.79535 3.53622 -0.015881
thorax -10.0208 1.35522 -3.32078
lowerneck -14.8394 -2.79948 -4.51999
upperneck 13.323 -2.65107 -1.70903
head 6.54027 -1.70008 -0.0834068
rclavicle -1.98785e-015 -1.35174e-014
rhumerus 31.6665 3.06661 -28.4321
rradius 84.4802
rwrist 0.201358
rhand -23.9591 6.98041
rfingers 7.12502
rthumb 2.51681 -22.9845
lclavicle -1.98785e-015 -1.35174e-014
lhumerus 5.62764 -3.36554 17.7265
lradius 79.7525
lwrist -0.448311
lhand -26.7428 -14.7558
lfingers 7.12502
lthumb -0.171708 15.2239
rfemur 11.4735 3.93371 19.8576
rtibia 3.18055e-015
rfoot 29.8486 -11.0586
rtoes -11.2054
lfemur -95.8772 4.76122 -8.61148
ltibia 107.575
lfoot -3.67251 -16.3501
ltoes -10.2489
72
root 10.1164 20.8472 11.312 -178.221 -17.5046 -183.028
lowerback 21.835 2.39265 4.24208
upperback 2.07495 3.80875 0.0383396
thorax -9.6403 1.47856 -3.47031
lowerneck -14.3309 -2.69988 -4.54138
upperneck 13.4841 -2.52289 -1.93022
head 6.50224 -1.66731 -0.133056
rclavicle -7.35503e-015 2.22639e-014
rhumerus 31.9998 3.0343 -29.096
rradius 83.307
rwrist 0.523396
rhand -23.9143 6.55927
rfingers 7.12502
rthumb 2.56011 -23.4051
lclavicle -7.35503e-015 2.22639e-014
lhumerus 3.92878 -3.91517 18.3579
lradius 78.2247
lwrist -1.22019
lhand -26.7385 -14.8228
lfingers 7.12502
lthumb -0.16752 15.1569
rfemur 12.3093 3.51122 19.6826
rtibia 2.06736e-014
rfoot 32.3963 -11.3444
rtoes -9.55245
lfemur -95.0079 5.11095 -7.50115
ltibia 105.16
lfoot -4.04002 -16.4428
ltoes -10.3725
73
root 9.9693 21.2136 10.9497 -178.588 -16.4639 -182.623
lowerback 21.8847 2.58236 4.60552
upperback 2.33734 4.11379 0.148237
thorax -9.32906 1.61137 -3.63235
lowerneck -13.8379 -2.59835 -4.52859
upperneck 13.6196 -2.39863 -2.15692
head 6.45802 -1.63454 -0.19059
rclavicle 7.07673e-014 5.56597e-015
rhumerus 32.0865 3.27361 -30.1448
rradius 82.2948
rwrist 0.781077
rhand -23.9916 6.23829
rfingers 7.12502
rthumb 2.48547 -23.727
lclavicle 7.07673e-014 5.56597e-015
lhumerus 2.02415 -4.31424 19.5403
lradius 76.9941
lwrist -1.86427
lhand -26.8999 -14.8415
lfingers 7.12502
lthumb -0.323375 15.138
rfemur 12.3537 3.18106 19.6684
rtibia 1.66579
rfoot 33.8723 -11.3063
rtoes -8.19139
lfemur -93.9439 5.55927 -6.24745
ltibia 102.852
lfoot -4.41187 -16.3963
ltoes -10.4716
